<svg width="17" height="16" viewBox="0 0 17 16" fill="none" xmlns="http://www.w3.org/2000/svg">
<path d="M15.7879 0H1.58413C1.09765 0 0.702637 0.395833 0.702637 0.883333V15.1167C0.702637 15.6042 1.09765 16 1.58413 16H8.686V9.66667H6.77748V7.33333H8.686V5.60833C8.686 3.54167 10.1164 2.41667 11.9584 2.41667C12.8399 2.41667 13.7879 2.48333 14.0082 2.5125V4.67083H12.5405C11.5384 4.67083 11.3471 5.14583 11.3471 5.84583V7.33333H13.7338L13.422 9.66667H11.3471V16H15.7879C16.2744 16 16.6694 15.6042 16.6694 15.1167V0.883333C16.6694 0.395833 16.2744 0 15.7879 0Z" fill="white"/>
</svg>
