<svg width="23" height="16" viewBox="0 0 23 16" fill="none" xmlns="http://www.w3.org/2000/svg">
<path d="M11.6832 3.89523C8.56636 3.89523 6.05094 5.72847 6.05094 8C6.05094 10.2715 8.56636 12.1048 11.6832 12.1048C14.8 12.1048 17.3154 10.2715 17.3154 8C17.3154 5.72847 14.8 3.89523 11.6832 3.89523ZM11.6832 10.6678C9.66754 10.6678 8.02263 9.46899 8.02263 8C8.02263 6.53101 9.66754 5.3322 11.6832 5.3322C13.6988 5.3322 15.3437 6.53101 15.3437 8C15.3437 9.46899 13.6988 10.6678 11.6832 10.6678ZM17.5461 2.77047C16.8184 2.77047 16.2307 3.19876 16.2307 3.72911C16.2307 4.25947 16.8184 4.68776 17.5461 4.68776C18.2738 4.68776 18.8614 4.26147 18.8614 3.72911C18.8587 3.19675 18.2738 2.77047 17.5461 2.77047ZM22.662 8C22.662 6.89525 22.6758 5.80051 22.5906 4.69777C22.5055 3.4169 22.1046 2.28014 20.8194 1.3435C19.5315 0.404868 17.9745 0.114672 16.217 0.0526304C14.7011 -0.0094115 13.199 0.000595291 11.6859 0.000595291C10.1701 0.000595291 8.66796 -0.0094115 7.15487 0.0526304C5.39737 0.114672 3.8376 0.40687 2.55243 1.3435C1.26451 2.28214 0.866328 3.4169 0.781199 4.69777C0.696071 5.80252 0.709801 6.89725 0.709801 8C0.709801 9.10275 0.696071 10.1995 0.781199 11.3022C0.866328 12.5831 1.26726 13.7199 2.55243 14.6565C3.84034 15.5951 5.39737 15.8853 7.15487 15.9474C8.67071 16.0094 10.1728 15.9994 11.6859 15.9994C13.2018 15.9994 14.7039 16.0094 16.217 15.9474C17.9745 15.8853 19.5342 15.5931 20.8194 14.6565C22.1073 13.7179 22.5055 12.5831 22.5906 11.3022C22.6785 10.1995 22.662 9.10475 22.662 8ZM20.2455 12.7192C20.045 13.0834 19.8034 13.3556 19.4162 13.6358C19.029 13.918 18.6582 14.0941 18.1584 14.2402C16.714 14.6585 13.2841 14.5644 11.6832 14.5644C10.0822 14.5644 6.64959 14.6585 5.20515 14.2422C4.70536 14.0961 4.33189 13.92 3.94744 13.6378C3.56024 13.3556 3.31859 13.0854 3.11812 12.7212C2.54693 11.6665 2.676 9.16679 2.676 8C2.676 6.83321 2.54693 4.33152 3.11812 3.27881C3.31859 2.91456 3.56024 2.64238 3.94744 2.36219C4.33464 2.082 4.70536 1.90388 5.20515 1.75778C6.64959 1.3415 10.0822 1.43556 11.6832 1.43556C13.2841 1.43556 16.7167 1.3415 18.1612 1.75778C18.661 1.90388 19.0344 2.08 19.4189 2.36219C19.8061 2.64438 20.0478 2.91456 20.2482 3.27881C20.8194 4.33152 20.6903 6.83321 20.6903 8C20.6903 9.16679 20.8194 11.6665 20.2455 12.7192Z" fill="white"/>
</svg>
