<svg width="17" height="13" viewBox="0 0 17 13" fill="none" xmlns="http://www.w3.org/2000/svg">
<path d="M16.6652 1.54405C16.0781 1.79786 15.4391 1.98053 14.7809 2.05168C15.4602 1.64596 15.9764 1.00565 16.22 0.244201C15.5926 0.619157 14.8826 0.894124 14.1439 1.03641C13.5452 0.396106 12.6951 0 11.753 0C9.93966 0 8.48133 1.4729 8.48133 3.28038C8.48133 3.53419 8.51204 3.78801 8.56193 4.03221C5.84676 3.88992 3.42517 2.59007 1.81526 0.599928C1.53127 1.08833 1.37008 1.64596 1.37008 2.2555C1.37008 3.39382 1.94766 4.39755 2.82841 4.98786C2.29113 4.96671 1.78455 4.81481 1.34898 4.57061V4.61099C1.34898 6.20503 2.47342 7.52602 3.97204 7.82983C3.69765 7.90098 3.40406 7.94136 3.11048 7.94136C2.89749 7.94136 2.69601 7.92021 2.49261 7.89136C2.90708 9.19121 4.11404 10.1353 5.55125 10.1661C4.42681 11.0487 3.01837 11.5678 1.48905 11.5678C1.21466 11.5678 0.961369 11.5582 0.698486 11.5275C2.14914 12.46 3.87034 12.9984 5.72395 12.9984C11.7415 12.9984 15.0342 8.00289 15.0342 3.66687C15.0342 3.52458 15.0342 3.38229 15.0246 3.24C15.6617 2.77275 16.22 2.19397 16.6652 1.54405Z" fill="white"/>
</svg>
